<?xml version="1.0" encoding="UTF-8"?>
<svg id="Laag_2" xmlns="http://www.w3.org/2000/svg" viewBox="0 0 123.95 227.25">
  <g id="Laag_1-2" data-name="Laag_1">
    <g>
      <path d="M58.62,57.95c9.36-6.3,18.48-12.42,28.73-17.04,6.6-2.97,12.62-8.38,15.67-15.73.99-2.4,2.55-3.02,4.83-2.87,3.07.21,2.14,2.62,2.08,4.19-.31,7.7,2.41,15.08,1.6,22.93-1.7,16.48-13.21,23.84-25.76,25.58-6.2.86-12.76,1.01-19.22-.91-6.19-1.84-9.77,1.22-10.1,8.08-.29,5.96.78,11.85,1.6,17.78.76,5.52,3.29,4.83,6.99,4.11,9.58-1.86,18.98-4.7,28.83-5.18,4.86-.24,6.5,1.55,6.51,6.41.01,4.02,1.22,8.06,2.12,12.05,1.27,5.69.33,10.06-6.19,11.42-4.66.98-5.62,4.07-5.94,8.45-.81,10.99,2.59,21.67,1.67,32.69-.53,6.42-2.71,9.31-9.37,10.06-16.32,1.86-32.44,5.32-48.98,5.64-4.4.09-5.39-1.05-6.29-5.09-3.09-13.92,1.44-27.65.47-41.49-.27-3.88.37-7.33-5.46-6.86-2.2.18-4.73-2.27-4.19-4.63,1.41-6.22-4.85-12.55.42-18.47.81-.91,2.62-1.72,3.7-1.46,9.42,2.23,18.4-1.86,27.65-1.7,1.97.03,3.19-.65,2.74-2.85-2.03-9.93-2.68-19.95-2.77-30.07-.04-5.1-5.06-5.82-8.57-7.4-12.31-5.53-23.95-11.69-27.83-26.12-3.58-13.34.76-25.12,7.62-36.26.99-1.62,2.43-3.56,4.99-3.18,2.88.43,3.91,3.22,4,5.04.53,10.89,6.82,18.09,14.93,23.97,9.9,7.16,13.29,17.15,13.52,28.9ZM39.74,179.98c13.8-2.53,27.73-4.8,41.84-5.85,2.72-.2,4.66-2.26,4.63-5.16-.03-3.42-.35-6.9-.49-10.28-.33-8.12-4.16-16.09-1.07-24.41,1.03-2.77.21-5.04-3.61-4.65-3.79.38-7.59.72-11.39.83-9.65.27-19.3.41-28.94.59-4.61.09-6.05,2.35-6.1,6.99-.11,11.28-.12,22.67-1.66,33.8-.9,6.55-.17,9.12,6.78,8.14ZM62.86,124.06c10.35,0,18.02.36,25.63-.14,4.16-.27,10.17-.31,6.41-7.87-.87-1.75-.79-4.01-.98-6.05-.39-4.14-3.1-4.72-6.3-3.92-14.15,3.53-28.43,5.84-42.98,7.19-5.11.47-10.61-.18-15.53,1.88-2.03.85-6.18-.15-4.93,4.65.89,3.4,1.23,6.4,6.21,5.75,11.66-1.53,23.4-1.92,32.46-1.5ZM23.71,14.9c-7.71,13.03-4.7,29.76,6.37,36.45,6.6,3.99,13.69,7.17,20.31,11.15,3.22,1.94,4.19.08,3.72-2.03-2.02-8.95-3-18.51-11.56-24.41-7.79-5.38-14.27-11.95-18.83-21.16ZM103.96,36.3c-12.95,13.05-31.27,17.01-43.66,29.41,6.4,4.53,13.44,2.84,19.76,3.25,7.15.46,14.93-1.71,20.31-8.32,5.93-7.27,5.78-15.17,3.59-24.35Z"/>
      <path d="M5.73,213.7c-.18,3.1-.65,5.75.6,8.51.72,1.59,1.88,4.23-1.44,4.94-2.7.58-2.76-1.35-3.86-3.28-2.78-4.9,1.1-9.63-.73-14.62-.98-2.67,3.44-4.65,6.2-5.39,4.79-1.29,9.79-1.75,14.65-2.78,2.04-.43,2.18.87,2.83,2.08,1.3,2.41-1.41,2.29-1.95,2.44-4.28,1.22-8.66,2.1-13.82,3.27,9.24,7.78,19.61,7.67,29.72,7.49,23.07-.4,44.39-9.12,66.29-14.97,3.95-1.06,7.74-3.99,10.8-6.9,6.98-6.63,3.83-16.28-5.92-18.75-2.24-.57-5.21-.31-4.16-3.71.91-2.93,3.17-1.08,5.12-.67,6.82,1.41,12.02,4.91,13.67,11.79,1.44,6.01-4.59,15.43-11.68,19.12-10.53,5.48-22.35,7.22-33.39,11.26-13.12,4.81-26.86,6.65-40.65,8.15-11.64,1.27-21.87-3.43-32.28-7.96Z"/>
    </g>
  </g>
</svg>